<svg xmlns="http://www.w3.org/2000/svg" width="512" height="512" viewBox="0 0 512 512">
  <defs>
    <radialGradient id="bg" cx="50%" cy="42%" r="75%">
      <stop offset="0%" stop-color="#1a0b2e"/>
      <stop offset="55%" stop-color="#0d0620"/>
      <stop offset="100%" stop-color="#050310"/>
    </radialGradient>
    <linearGradient id="glow" x1="0%" y1="0%" x2="100%" y2="0%">
      <stop offset="0%" stop-color="#ff2bd6"/>
      <stop offset="100%" stop-color="#00f0ff"/>
    </linearGradient>
    <clipPath id="round"><rect x="0" y="0" width="512" height="512" rx="72"/></clipPath>
  </defs>
  <g clip-path="url(#round)">
    <rect width="512" height="512" fill="url(#bg)"/>
    <!-- circuit / grid backdrop -->
    <g stroke="#ff2bd6" stroke-opacity="0.09" stroke-width="1.5">
      <line x1="32" y1="0" x2="32" y2="512"/><line x1="94" y1="0" x2="94" y2="512"/><line x1="156" y1="0" x2="156" y2="512"/><line x1="218" y1="0" x2="218" y2="512"/><line x1="280" y1="0" x2="280" y2="512"/><line x1="342" y1="0" x2="342" y2="512"/><line x1="404" y1="0" x2="404" y2="512"/><line x1="466" y1="0" x2="466" y2="512"/>
    </g>
    <g stroke="#00f0ff" stroke-opacity="0.08" stroke-width="1.5">
      <line x1="0" y1="32" x2="512" y2="32"/><line x1="0" y1="94" x2="512" y2="94"/><line x1="0" y1="156" x2="512" y2="156"/><line x1="0" y1="218" x2="512" y2="218"/><line x1="0" y1="280" x2="512" y2="280"/><line x1="0" y1="342" x2="512" y2="342"/><line x1="0" y1="404" x2="512" y2="404"/><line x1="0" y1="466" x2="512" y2="466"/>
    </g>
    <!-- ground glow -->
    <ellipse cx="270" cy="430" rx="190" ry="18" fill="#00f0ff" opacity="0.18"/>

    <!-- wireframe half (front / head side) -->
    <path d="M283.58,297.72 L278.52555627822875,261.19244332909585 L268.5631806124002,298.6172855790704 Z" fill="none" stroke="#00f0ff" stroke-width="2.4" stroke-opacity="0.9"/><path d="M278.52555627822875,261.19244332909585 L253.94,300 L268.5631806124002,298.6172855790704 Z" fill="none" stroke="#00f0ff" stroke-width="2.4" stroke-opacity="0.9"/><path d="M270.0573159176856,228.6369655262679 L243.23454841487109,247.170013384521 L278.52555627822875,261.19244332909585 Z" fill="none" stroke="#00f0ff" stroke-width="2.4" stroke-opacity="0.9"/><path d="M278.52555627822875,261.19244332909585 L243.23454841487109,247.170013384521 L253.94,300 Z" fill="none" stroke="#00f0ff" stroke-width="2.4" stroke-opacity="0.9"/><path d="M243.23454841487109,247.170013384521 L223.5782143317163,289.59607793353496 L253.94,300 Z" fill="none" stroke="#00f0ff" stroke-width="2.4" stroke-opacity="0.9"/><path d="M223.5782143317163,289.59607793353496 L227.56016926690936,307.58677228726447 L253.94,300 Z" fill="none" stroke="#00f0ff" stroke-width="2.4" stroke-opacity="0.9"/><path d="M227.56016926690936,307.58677228726447 L228.86,315.96 L253.94,300 Z" fill="none" stroke="#00f0ff" stroke-width="2.4" stroke-opacity="0.9"/><path d="M195.96858770512046,272.9487903084606 L203.78,290.88 L223.5782143317163,289.59607793353496 Z" fill="none" stroke="#00f0ff" stroke-width="2.4" stroke-opacity="0.9"/><path d="M223.5782143317163,289.59607793353496 L203.78,290.88 L227.56016926690936,307.58677228726447 Z" fill="none" stroke="#00f0ff" stroke-width="2.4" stroke-opacity="0.9"/><path d="M189.1584100779146,248.10988358445465 L195.96858770512046,272.9487903084606 L243.23454841487109,247.170013384521 Z" fill="none" stroke="#00f0ff" stroke-width="2.4" stroke-opacity="0.9"/><path d="M243.23454841487109,247.170013384521 L195.96858770512046,272.9487903084606 L223.5782143317163,289.59607793353496 Z" fill="none" stroke="#00f0ff" stroke-width="2.4" stroke-opacity="0.9"/><path d="M270.0573159176856,228.6369655262679 L222.1751207731664,208.02557667531073 L243.23454841487109,247.170013384521 Z" fill="none" stroke="#00f0ff" stroke-width="2.4" stroke-opacity="0.9"/><path d="M255.58352592624723,184.81407123059034 L222.1751207731664,208.02557667531073 L270.0573159176856,228.6369655262679 Z" fill="none" stroke="#00f0ff" stroke-width="2.4" stroke-opacity="0.9"/><path d="M222.1751207731664,208.02557667531073 L189.1584100779146,248.10988358445465 L243.23454841487109,247.170013384521 Z" fill="none" stroke="#00f0ff" stroke-width="2.4" stroke-opacity="0.9"/><path d="M306.9473247952759,196.97260367050768 L255.58352592624723,184.81407123059034 L270.0573159176856,228.6369655262679 Z" fill="none" stroke="#00f0ff" stroke-width="2.4" stroke-opacity="0.9"/><path d="M171.86,325.08 L186.79648959897457,327.29003127478063 L203.78,290.88 Z" fill="none" stroke="#00f0ff" stroke-width="2.4" stroke-opacity="0.9"/><path d="M171.86,325.08 L203.78,290.88 L154.6063176199794,280.31387299634514 Z" fill="none" stroke="#00f0ff" stroke-width="2.4" stroke-opacity="0.9"/><path d="M201.3831535216421,195.45677219443024 L206.91149477101862,205.48741449043155 L222.1751207731664,208.02557667531073 Z" fill="none" stroke="#00f0ff" stroke-width="2.4" stroke-opacity="0.9"/><path d="M222.1751207731664,208.02557667531073 L206.91149477101862,205.48741449043155 L189.1584100779146,248.10988358445465 Z" fill="none" stroke="#00f0ff" stroke-width="2.4" stroke-opacity="0.9"/><path d="M255.58352592624723,184.81407123059034 L227.39362353868782,180.0922990337014 L222.1751207731664,208.02557667531073 Z" fill="none" stroke="#00f0ff" stroke-width="2.4" stroke-opacity="0.9"/><path d="M227.39362353868782,180.0922990337014 L201.3831535216421,195.45677219443024 L222.1751207731664,208.02557667531073 Z" fill="none" stroke="#00f0ff" stroke-width="2.4" stroke-opacity="0.9"/><path d="M157.13291376382114,228.2756049990654 L155.58953449428083,242.3074809011072 L189.1584100779146,248.10988358445465 Z" fill="none" stroke="#00f0ff" stroke-width="2.4" stroke-opacity="0.9"/><path d="M154.6063176199794,280.31387299634514 L203.78,290.88 L195.96858770512046,272.9487903084606 Z" fill="none" stroke="#00f0ff" stroke-width="2.4" stroke-opacity="0.9"/><path d="M186.79648959897457,327.29003127478063 L171.86,325.08 L187.82,331.92 Z" fill="none" stroke="#00f0ff" stroke-width="2.4" stroke-opacity="0.9"/><path d="M306.9473247952759,196.97260367050768 L270.22264718674126,161.42068190835417 L255.58352592624723,184.81407123059034 Z" fill="none" stroke="#00f0ff" stroke-width="2.4" stroke-opacity="0.9"/><path d="M255.58352592624723,184.81407123059034 L237.52924553751944,155.12169111706316 L227.39362353868782,180.0922990337014 Z" fill="none" stroke="#00f0ff" stroke-width="2.4" stroke-opacity="0.9"/><path d="M189.1584100779146,248.10988358445465 L154.6063176199794,280.31387299634514 L195.96858770512046,272.9487903084606 Z" fill="none" stroke="#00f0ff" stroke-width="2.4" stroke-opacity="0.9"/><path d="M155.58953449428083,242.3074809011072 L154.6063176199794,280.31387299634514 L189.1584100779146,248.10988358445465 Z" fill="none" stroke="#00f0ff" stroke-width="2.4" stroke-opacity="0.9"/><path d="M160.46,222.48000000000002 L189.1584100779146,248.10988358445465 L206.91149477101862,205.48741449043155 Z" fill="none" stroke="#00f0ff" stroke-width="2.4" stroke-opacity="0.9"/><path d="M201.3831535216421,195.45677219443024 L160.46,222.48000000000002 L206.91149477101862,205.48741449043155 Z" fill="none" stroke="#00f0ff" stroke-width="2.4" stroke-opacity="0.9"/><path d="M160.46,222.48000000000002 L157.13291376382114,228.2756049990654 L189.1584100779146,248.10988358445465 Z" fill="none" stroke="#00f0ff" stroke-width="2.4" stroke-opacity="0.9"/><path d="M227.39362353868782,180.0922990337014 L202.89847269020976,162.67491994276642 L201.3831535216421,195.45677219443024 Z" fill="none" stroke="#00f0ff" stroke-width="2.4" stroke-opacity="0.9"/><path d="M158.46018275208772,197.0001340419054 L151.34,215.64 L160.46,222.48000000000002 Z" fill="none" stroke="#00f0ff" stroke-width="2.4" stroke-opacity="0.9"/><path d="M270.22264718674126,161.42068190835417 L237.52924553751944,155.12169111706316 L255.58352592624723,184.81407123059034 Z" fill="none" stroke="#00f0ff" stroke-width="2.4" stroke-opacity="0.9"/><path d="M270.22264718674126,161.42068190835417 L250.52,142.68 L237.52924553751944,155.12169111706316 Z" fill="none" stroke="#00f0ff" stroke-width="2.4" stroke-opacity="0.9"/><path d="M237.52924553751944,155.12169111706316 L202.89847269020976,162.67491994276642 L227.39362353868782,180.0922990337014 Z" fill="none" stroke="#00f0ff" stroke-width="2.4" stroke-opacity="0.9"/><path d="M158.46018275208772,197.0001340419054 L160.46,222.48000000000002 L201.3831535216421,195.45677219443024 Z" fill="none" stroke="#00f0ff" stroke-width="2.4" stroke-opacity="0.9"/><path d="M160.46,222.48000000000002 L151.34,215.64 L157.13291376382114,228.2756049990654 Z" fill="none" stroke="#00f0ff" stroke-width="2.4" stroke-opacity="0.9"/><path d="M157.13291376382114,228.2756049990654 L137.66000000000003,245.28 L155.58953449428083,242.3074809011072 Z" fill="none" stroke="#00f0ff" stroke-width="2.4" stroke-opacity="0.9"/><path d="M155.58953449428083,242.3074809011072 L137.66000000000003,245.28 L154.6063176199794,280.31387299634514 Z" fill="none" stroke="#00f0ff" stroke-width="2.4" stroke-opacity="0.9"/><path d="M306.1001873780042,151.34626677185298 L250.52,142.68 L270.22264718674126,161.42068190835417 Z" fill="none" stroke="#00f0ff" stroke-width="2.4" stroke-opacity="0.9"/><path d="M237.52924553751944,155.12169111706316 L250.52,142.68 L202.89847269020976,162.67491994276642 Z" fill="none" stroke="#00f0ff" stroke-width="2.4" stroke-opacity="0.9"/><path d="M128.54000000000002,300 L151.34,345.6 L171.86,325.08 Z" fill="none" stroke="#00f0ff" stroke-width="2.4" stroke-opacity="0.9"/><path d="M128.54000000000002,300 L171.86,325.08 L154.6063176199794,280.31387299634514 Z" fill="none" stroke="#00f0ff" stroke-width="2.4" stroke-opacity="0.9"/><path d="M130.5833113040775,215.4301899150014 L137.66000000000003,245.28 L157.13291376382114,228.2756049990654 Z" fill="none" stroke="#00f0ff" stroke-width="2.4" stroke-opacity="0.9"/><path d="M202.89847269020976,162.67491994276642 L158.46018275208772,197.0001340419054 L201.3831535216421,195.45677219443024 Z" fill="none" stroke="#00f0ff" stroke-width="2.4" stroke-opacity="0.9"/><path d="M130.5833113040775,215.4301899150014 L129.0815276045352,244.92596505694092 L137.66000000000003,245.28 Z" fill="none" stroke="#00f0ff" stroke-width="2.4" stroke-opacity="0.9"/><path d="M137.66000000000003,245.28 L131.45045642741024,292.2511608451605 L154.6063176199794,280.31387299634514 Z" fill="none" stroke="#00f0ff" stroke-width="2.4" stroke-opacity="0.9"/><path d="M114.86000000000001,295.44 L128.54000000000002,295.44 L131.45045642741024,292.2511608451605 Z" fill="none" stroke="#00f0ff" stroke-width="2.4" stroke-opacity="0.9"/><path d="M131.45045642741024,292.2511608451605 L128.54000000000002,300 L154.6063176199794,280.31387299634514 Z" fill="none" stroke="#00f0ff" stroke-width="2.4" stroke-opacity="0.9"/><path d="M122.84,243 L129.0815276045352,244.92596505694092 L130.5833113040775,215.4301899150014 Z" fill="none" stroke="#00f0ff" stroke-width="2.4" stroke-opacity="0.9"/><path d="M137.66000000000003,245.28 L129.0815276045352,244.92596505694092 L131.45045642741024,292.2511608451605 Z" fill="none" stroke="#00f0ff" stroke-width="2.4" stroke-opacity="0.9"/><path d="M128.54000000000002,341.04 L137.1832449145615,354.50054924339054 L151.34,345.6 Z" fill="none" stroke="#00f0ff" stroke-width="2.4" stroke-opacity="0.9"/><path d="M151.34,345.6 L187.82,429.96 L187.82,331.92 Z" fill="none" stroke="#00f0ff" stroke-width="2.4" stroke-opacity="0.9"/><path d="M130.5833113040775,215.4301899150014 L157.13291376382114,228.2756049990654 L151.34,215.64 Z" fill="none" stroke="#00f0ff" stroke-width="2.4" stroke-opacity="0.9"/><path d="M129.0815276045352,244.92596505694092 L114.86000000000001,295.44 L131.45045642741024,292.2511608451605 Z" fill="none" stroke="#00f0ff" stroke-width="2.4" stroke-opacity="0.9"/><path d="M142.97188761159777,189.4135807953775 L130.5833113040775,215.4301899150014 L151.34,215.64 Z" fill="none" stroke="#00f0ff" stroke-width="2.4" stroke-opacity="0.9"/><path d="M142.97188761159777,189.4135807953775 L151.34,215.64 L158.46018275208772,197.0001340419054 Z" fill="none" stroke="#00f0ff" stroke-width="2.4" stroke-opacity="0.9"/><path d="M128.54000000000002,300 L128.54000000000002,341.04 L151.34,345.6 Z" fill="none" stroke="#00f0ff" stroke-width="2.4" stroke-opacity="0.9"/><path d="M160.46,154.08 L142.97188761159777,189.4135807953775 L158.46018275208772,197.0001340419054 Z" fill="none" stroke="#00f0ff" stroke-width="2.4" stroke-opacity="0.9"/><path d="M122.84,243 L114.86000000000001,295.44 L129.0815276045352,244.92596505694092 Z" fill="none" stroke="#00f0ff" stroke-width="2.4" stroke-opacity="0.9"/><path d="M250.52,142.68 L160.46,154.08 L202.89847269020976,162.67491994276642 Z" fill="none" stroke="#00f0ff" stroke-width="2.4" stroke-opacity="0.9"/><path d="M202.89847269020976,162.67491994276642 L160.46,154.08 L158.46018275208772,197.0001340419054 Z" fill="none" stroke="#00f0ff" stroke-width="2.4" stroke-opacity="0.9"/><path d="M165.02,429.96 L187.82,429.96 L151.34,345.6 Z" fill="none" stroke="#00f0ff" stroke-width="2.4" stroke-opacity="0.9"/><path d="M160.46,154.08 L133.10000000000002,170.04000000000002 L142.97188761159777,189.4135807953775 Z" fill="none" stroke="#00f0ff" stroke-width="2.4" stroke-opacity="0.9"/><path d="M142.97188761159777,189.4135807953775 L133.10000000000002,170.04000000000002 L130.5833113040775,215.4301899150014 Z" fill="none" stroke="#00f0ff" stroke-width="2.4" stroke-opacity="0.9"/><path d="M130.5833113040775,215.4301899150014 L133.10000000000002,170.04000000000002 L122.84,243 Z" fill="none" stroke="#00f0ff" stroke-width="2.4" stroke-opacity="0.9"/><path d="M137.1832449145615,354.50054924339054 L165.02,429.96 L151.34,345.6 Z" fill="none" stroke="#00f0ff" stroke-width="2.4" stroke-opacity="0.9"/><path d="M151.34,427.68 L165.02,429.96 L137.1832449145615,354.50054924339054 Z" fill="none" stroke="#00f0ff" stroke-width="2.4" stroke-opacity="0.9"/><path d="M130.82000000000002,427.68 L151.34,427.68 L137.1832449145615,354.50054924339054 Z" fill="none" stroke="#00f0ff" stroke-width="2.4" stroke-opacity="0.9"/><path d="M130.82000000000002,427.68 L137.1832449145615,354.50054924339054 L128.54000000000002,341.04 Z" fill="none" stroke="#00f0ff" stroke-width="2.4" stroke-opacity="0.9"/>
    <!-- solid shaded half (rear side) -->
    <path d="M283.58,297.72 L301.82,290.88 L278.52555627822875,261.19244332909585 Z" fill="#485388" fill-opacity="0.96" stroke="#7d90eb" stroke-width="1.1" stroke-opacity="0.6"/><path d="M301.82,290.88 L298.09584043845535,255.87195808291435 L278.52555627822875,261.19244332909585 Z" fill="#4d5e96" fill-opacity="0.96" stroke="#7993ec" stroke-width="1.1" stroke-opacity="0.6"/><path d="M306.48865978606045,287.40615047551694 L298.09584043845535,255.87195808291435 L301.82,290.88 Z" fill="#5e81c7" fill-opacity="0.96" stroke="#7099ed" stroke-width="1.1" stroke-opacity="0.6"/><path d="M298.09584043845535,255.87195808291435 L270.0573159176856,228.6369655262679 L278.52555627822875,261.19244332909585 Z" fill="#6d75c5" fill-opacity="0.96" stroke="#828cea" stroke-width="1.1" stroke-opacity="0.6"/><path d="M306.48865978606045,287.40615047551694 L327.9615293852985,265.2266874611378 L298.09584043845535,255.87195808291435 Z" fill="#5683c4" fill-opacity="0.96" stroke="#699fee" stroke-width="1.1" stroke-opacity="0.6"/><path d="M298.09584043845535,255.87195808291435 L301.5654504105449,226.78993803337215 L270.0573159176856,228.6369655262679 Z" fill="#5665a5" fill-opacity="0.96" stroke="#7b91eb" stroke-width="1.1" stroke-opacity="0.6"/><path d="M327.9615293852985,265.2266874611378 L301.5654504105449,226.78993803337215 L298.09584043845535,255.87195808291435 Z" fill="#486ba1" fill-opacity="0.96" stroke="#6a9eee" stroke-width="1.1" stroke-opacity="0.6"/><path d="M340.58,300 L338.07921349667015,294.29375439472494 L306.48865978606045,287.40615047551694 Z" fill="#4e95d2" fill-opacity="0.96" stroke="#59abf1" stroke-width="1.1" stroke-opacity="0.6"/><path d="M306.48865978606045,287.40615047551694 L338.07921349667015,294.29375439472494 L327.9615293852985,265.2266874611378 Z" fill="#3b6b99" fill-opacity="0.96" stroke="#5da8f0" stroke-width="1.1" stroke-opacity="0.6"/><path d="M340.58,300 L306.48865978606045,287.40615047551694 L301.82,290.88 Z" fill="#446ea2" fill-opacity="0.96" stroke="#64a3ef" stroke-width="1.1" stroke-opacity="0.6"/><path d="M306.38,331.92 L340.58,300 L301.82,290.88 Z" fill="#4875ab" fill-opacity="0.96" stroke="#64a3ef" stroke-width="1.1" stroke-opacity="0.6"/><path d="M365.65999999999997,268.08 L339.8983132671565,231.46020925678312 L327.9615293852985,265.2266874611378 Z" fill="#3f99cc" fill-opacity="0.96" stroke="#4bb6f3" stroke-width="1.1" stroke-opacity="0.6"/><path d="M306.38,331.92 L324.62,334.2 L340.58,300 Z" fill="#4174a6" fill-opacity="0.96" stroke="#5da8f0" stroke-width="1.1" stroke-opacity="0.6"/><path d="M327.9615293852985,265.2266874611378 L339.8983132671565,231.46020925678312 L301.5654504105449,226.78993803337215 Z" fill="#5495d6" fill-opacity="0.96" stroke="#5ea7f0" stroke-width="1.1" stroke-opacity="0.6"/><path d="M365.65999999999997,268.08 L327.9615293852985,265.2266874611378 L338.07921349667015,294.29375439472494 Z" fill="#3887b4" fill-opacity="0.96" stroke="#4cb6f3" stroke-width="1.1" stroke-opacity="0.6"/><path d="M340.58,300 L356.53999999999996,300 L338.07921349667015,294.29375439472494 Z" fill="#3480ab" fill-opacity="0.96" stroke="#4bb6f3" stroke-width="1.1" stroke-opacity="0.6"/><path d="M339.8983132671565,231.46020925678312 L306.9473247952759,196.97260367050768 L301.5654504105449,226.78993803337215 Z" fill="#436da0" fill-opacity="0.96" stroke="#64a3ef" stroke-width="1.1" stroke-opacity="0.6"/><path d="M301.5654504105449,226.78993803337215 L306.9473247952759,196.97260367050768 L270.0573159176856,228.6369655262679 Z" fill="#596cae" fill-opacity="0.96" stroke="#7993ec" stroke-width="1.1" stroke-opacity="0.6"/><path d="M356.53999999999996,300 L365.65999999999997,268.08 L338.07921349667015,294.29375439472494 Z" fill="#2c7b9f" fill-opacity="0.96" stroke="#43bcf4" stroke-width="1.1" stroke-opacity="0.6"/><path d="M356.53999999999996,300 L372.3099814724177,265.3346068128943 L365.65999999999997,268.08 Z" fill="#31a8d3" fill-opacity="0.96" stroke="#39c4f6" stroke-width="1.1" stroke-opacity="0.6"/><path d="M365.65999999999997,268.08 L372.3099814724177,265.3346068128943 L339.8983132671565,231.46020925678312 Z" fill="#2f90b8" fill-opacity="0.96" stroke="#3ec0f5" stroke-width="1.1" stroke-opacity="0.6"/><path d="M339.8983132671565,231.46020925678312 L337.23397308960557,186.5811885111034 L306.9473247952759,196.97260367050768 Z" fill="#5099d7" fill-opacity="0.96" stroke="#5aabf1" stroke-width="1.1" stroke-opacity="0.6"/><path d="M312.06039588488636,397.06763442829254 L324.18254511244595,367.44220246635376 L306.38,331.92 Z" fill="#5688c9" fill-opacity="0.96" stroke="#66a1ef" stroke-width="1.1" stroke-opacity="0.6"/><path d="M306.38,331.92 L324.18254511244595,367.44220246635376 L324.62,334.2 Z" fill="#4777ad" fill-opacity="0.96" stroke="#62a4ef" stroke-width="1.1" stroke-opacity="0.6"/><path d="M418.1,268.08 L400.3398240733892,251.38832678347825 L372.3099814724177,265.3346068128943 Z" fill="#1499b0" fill-opacity="0.96" stroke="#1ddafa" stroke-width="1.1" stroke-opacity="0.6"/><path d="M360.1301979761571,192.5283483788371 L337.23397308960557,186.5811885111034 L339.8983132671565,231.46020925678312 Z" fill="#3b91c1" fill-opacity="0.96" stroke="#4ab7f3" stroke-width="1.1" stroke-opacity="0.6"/><path d="M356.53999999999996,345.6 L360.6498351469636,356.28500954695045 L361.1,341.04 Z" fill="#36a8d7" fill-opacity="0.96" stroke="#3ec0f5" stroke-width="1.1" stroke-opacity="0.6"/><path d="M400.3398240733892,251.38832678347825 L377.8346308905631,224.4170049600303 L372.3099814724177,265.3346068128943 Z" fill="#1e9bb9" fill-opacity="0.96" stroke="#29d0f8" stroke-width="1.1" stroke-opacity="0.6"/><path d="M372.3099814724177,265.3346068128943 L377.8346308905631,224.4170049600303 L339.8983132671565,231.46020925678312 Z" fill="#2e98c0" fill-opacity="0.96" stroke="#3bc3f6" stroke-width="1.1" stroke-opacity="0.6"/><path d="M306.1001873780042,151.34626677185298 L270.22264718674126,161.42068190835417 L306.9473247952759,196.97260367050768 Z" fill="#485a8f" fill-opacity="0.96" stroke="#7794ec" stroke-width="1.1" stroke-opacity="0.6"/><path d="M377.8346308905631,224.4170049600303 L360.1301979761571,192.5283483788371 L339.8983132671565,231.46020925678312 Z" fill="#3198c2" fill-opacity="0.96" stroke="#3ec0f5" stroke-width="1.1" stroke-opacity="0.6"/><path d="M337.23397308960557,186.5811885111034 L306.1001873780042,151.34626677185298 L306.9473247952759,196.97260367050768 Z" fill="#4470a4" fill-opacity="0.96" stroke="#64a3ef" stroke-width="1.1" stroke-opacity="0.6"/><path d="M377.8346308905631,224.4170049600303 L393.30160016305746,211.2172031905502 L360.1301979761571,192.5283483788371 Z" fill="#249cbd" fill-opacity="0.96" stroke="#2fccf8" stroke-width="1.1" stroke-opacity="0.6"/><path d="M331.46,154.08 L306.1001873780042,151.34626677185298 L337.23397308960557,186.5811885111034 Z" fill="#4e8fcc" fill-opacity="0.96" stroke="#5ca9f0" stroke-width="1.1" stroke-opacity="0.6"/><path d="M400.3398240733892,251.38832678347825 L393.30160016305746,211.2172031905502 L377.8346308905631,224.4170049600303 Z" fill="#1892ab" fill-opacity="0.96" stroke="#23d5f9" stroke-width="1.1" stroke-opacity="0.6"/><path d="M365.65999999999997,172.32 L331.46,154.08 L337.23397308960557,186.5811885111034 Z" fill="#31779f" fill-opacity="0.96" stroke="#4bb6f3" stroke-width="1.1" stroke-opacity="0.6"/><path d="M365.65999999999997,172.32 L337.23397308960557,186.5811885111034 L360.1301979761571,192.5283483788371 Z" fill="#276e8e" fill-opacity="0.96" stroke="#43bdf4" stroke-width="1.1" stroke-opacity="0.6"/><path d="M401.3935743715614,184.69756423830987 L365.65999999999997,172.32 L360.1301979761571,192.5283483788371 Z" fill="#26a0c3" fill-opacity="0.96" stroke="#30cbf7" stroke-width="1.1" stroke-opacity="0.6"/><path d="M400.3398240733892,251.38832678347825 L432.4163335684687,214.19243109598756 L393.30160016305746,211.2172031905502 Z" fill="#0fb6cb" fill-opacity="0.96" stroke="#13e2fc" stroke-width="1.1" stroke-opacity="0.6"/><path d="M301.82,429.96 L324.62,429.96 L312.06039588488636,397.06763442829254 Z" fill="#5b8ed4" fill-opacity="0.96" stroke="#67a0ee" stroke-width="1.1" stroke-opacity="0.6"/><path d="M393.30160016305746,211.2172031905502 L401.3935743715614,184.69756423830987 L360.1301979761571,192.5283483788371 Z" fill="#1a8aa4" fill-opacity="0.96" stroke="#28d1f9" stroke-width="1.1" stroke-opacity="0.6"/><path d="M432.4163335684687,214.19243109598756 L401.3935743715614,184.69756423830987 L393.30160016305746,211.2172031905502 Z" fill="#0c91a2" fill-opacity="0.96" stroke="#12e2fc" stroke-width="1.1" stroke-opacity="0.6"/><path d="M450.02,240.72 L432.4163335684687,214.19243109598756 L400.3398240733892,251.38832678347825 Z" fill="#018992" fill-opacity="0.96" stroke="#02eeff" stroke-width="1.1" stroke-opacity="0.6"/><path d="M416.96,160.92000000000002 L395.3,158.64000000000001 L401.3935743715614,184.69756423830987 Z" fill="#12b3ca" fill-opacity="0.96" stroke="#16dffb" stroke-width="1.1" stroke-opacity="0.6"/><path d="M401.3935743715614,184.69756423830987 L395.3,158.64000000000001 L365.65999999999997,172.32 Z" fill="#21b9da" fill-opacity="0.96" stroke="#25d3f9" stroke-width="1.1" stroke-opacity="0.6"/><path d="M450.02,240.72 L436.34,211.08 L432.4163335684687,214.19243109598756 Z" fill="#00c6d2" fill-opacity="0.96" stroke="#00f0ff" stroke-width="1.1" stroke-opacity="0.6"/><path d="M432.4163335684687,214.19243109598756 L422.65999999999997,180.3 L401.3935743715614,184.69756423830987 Z" fill="#08c3d5" fill-opacity="0.96" stroke="#0ae8fd" stroke-width="1.1" stroke-opacity="0.6"/><path d="M436.34,211.08 L422.65999999999997,180.3 L432.4163335684687,214.19243109598756 Z" fill="#00d5e2" fill-opacity="0.96" stroke="#00f0ff" stroke-width="1.1" stroke-opacity="0.6"/><path d="M418.1,268.08 L450.02,240.72 L400.3398240733892,251.38832678347825 Z" fill="#0494a0" fill-opacity="0.96" stroke="#06ebfe" stroke-width="1.1" stroke-opacity="0.6"/><path d="M436.34,146.10000000000002 L416.96,160.92000000000002 L422.65999999999997,180.3 Z" fill="#04d3e3" fill-opacity="0.96" stroke="#04edfe" stroke-width="1.1" stroke-opacity="0.6"/><path d="M422.65999999999997,180.3 L416.96,160.92000000000002 L401.3935743715614,184.69756423830987 Z" fill="#0995a4" fill-opacity="0.96" stroke="#0ee5fd" stroke-width="1.1" stroke-opacity="0.6"/>
    <!-- silhouette rim light -->
    <path d="M450.02,240.72 L436.34,211.08 L422.65999999999997,180.3 L436.34,146.10000000000002 L416.96,160.92000000000002 L395.3,158.64000000000001 L365.65999999999997,172.32 L331.46,154.08 L250.52,142.68 L160.46,154.08 L133.10000000000002,170.04000000000002 L122.84,243 L114.86000000000001,295.44 L128.54000000000002,295.44 L137.66000000000003,245.28 L151.34,215.64 L128.54000000000002,300 L128.54000000000002,341.04 L130.82000000000002,427.68 L151.34,427.68 L151.34,345.6 L160.46,222.48000000000002 L171.86,325.08 L165.02,429.96 L187.82,429.96 L187.82,331.92 L203.78,290.88 L228.86,315.96 L253.94,300 L283.58,297.72 L301.82,290.88 L306.38,331.92 L301.82,429.96 L324.62,429.96 L324.62,334.2 L340.58,300 L356.53999999999996,300 L356.53999999999996,345.6 L338.3,427.68 L358.82,427.68 L361.1,341.04 L365.65999999999997,268.08 L418.1,268.08 Z" fill="none" stroke="url(#glow)" stroke-width="4" stroke-opacity="0.95" stroke-linejoin="round"/>
    <!-- split seam glow -->
    <line x1="280" y1="150" x2="280" y2="440" stroke="#ffffff" stroke-opacity="0.4" stroke-width="2.2"/>

    <!-- outer neon border -->
    <rect x="6" y="6" width="500" height="500" rx="66" fill="none" stroke="url(#glow)" stroke-width="8" opacity="0.9"/>
  </g>
</svg>